<?xml version="1.0" encoding="UTF-8"?>
<svg id="Layer_2" data-name="Layer 2" xmlns="http://www.w3.org/2000/svg" viewBox="0 0 411.04 131.48">
  <defs>
    <style>
      .cls-1 {
        fill: #426db4;
        font-family: BreeSerif-Regular, 'Bree Serif';
        font-size: 22.59px;
      }

      .cls-2 {
        fill: #231f20;
        stroke: #231f20;
        stroke-miterlimit: 10;
      }

      .cls-3 {
        letter-spacing: -.08em;
      }

      .cls-4 {
        letter-spacing: -.03em;
      }
    </style>
  </defs>
  <g id="Layer_1-2" data-name="Layer 1">
    <text/>
    <g>
      <polygon class="cls-2" points="79.96 21.64 79.96 13.87 12.8 13.87 .5 26.18 .5 44.91 5.05 40.36 13.74 31.66 18.28 27.12 55.74 27.12 42.5 40.36 40.23 42.63 29.67 53.2 48.4 53.2 79.96 21.64"/>
      <polygon class="cls-2" points=".5 89.56 .5 97.32 67.66 97.32 79.96 85.02 79.96 66.29 75.41 70.84 66.72 79.54 62.18 84.08 24.72 84.08 37.96 70.84 40.23 68.57 50.79 57.99 32.06 57.99 .5 89.56"/>
    </g>
    <path class="cls-2" d="m104.62,70.71c0-7.53,6.11-13.64,13.64-13.64,2.9,0,5.59.91,7.8,2.46l9.25-9.25c-4.62-3.86-10.56-6.18-17.04-6.18-14.7,0-26.61,11.91-26.61,26.61,0,6.49,2.32,12.43,6.18,17.04l9.25-9.25c-1.54-2.21-2.46-4.9-2.46-7.8Z"/>
    <path class="cls-2" d="m129.44,62.92c1.54,2.21,2.46,4.9,2.46,7.8,0,7.53-6.11,13.64-13.64,13.64-2.9,0-5.59-.91-7.8-2.46l-9.25,9.25c4.62,3.86,10.56,6.18,17.04,6.18,14.7,0,26.61-11.91,26.61-26.61,0-6.49-2.32-12.43-6.18-17.04l-9.25,9.25Z"/>
    <path class="cls-2" d="m183.16,44.16h-6.75c1.11-.14,2.24-.22,3.38-.22s2.27.07,3.38.22Z"/>
    <path class="cls-2" d="m207.1,70.68v26.86h-13.4v-24.08c.19-.89.29-1.82.29-2.78,0-.73-.06-1.44-.17-2.14-.04-.22-.07-.43-.12-.64-1.28-6.09-6.68-10.66-13.15-10.66s-11.87,4.57-13.16,10.66c-.05.21-.09.43-.12.64-.11.7-.17,1.41-.17,2.14,0,.95.1,1.89.29,2.78v24.08h-13.4v-29h.14c.71-8.94,5.86-16.64,13.25-20.87,2.96-1.7,6.27-2.84,9.8-3.29h6.75c3.51.44,6.8,1.57,9.75,3.25,7.42,4.24,12.59,11.94,13.31,20.91.06.71.09,1.42.09,2.14Z"/>
    <path class="cls-2" d="m266.39,87.86c3.99-4.65,6.41-10.7,6.41-17.31,0-5.18-1.48-10.02-4.05-14.11l5.22-5.22-9.37-9.37-5.45,5.45c-4.1-2.29-8.87-3.53-13.93-3.34-14.19.51-25.65,12.43-25.63,26.63.01,7.07,2.78,13.51,7.31,18.26,3.1,3.27,7.02,5.75,11.43,7.12,2.49.76,5.13,1.18,7.87,1.18,3.22,0,6.31-.58,9.18-1.62,3.62,2.33,5.98,6.18,5.98,10.52,0,7.12-6.34,12.9-14.17,12.9s-14.17-5.78-14.17-12.9h-13.41c.11,13.78,12.42,24.92,27.59,24.92s27.59-11.24,27.59-25.11c0-7.07-3.21-13.45-8.37-18.01Zm-33.86-16.4c-.38-7.29,5.26-13.77,12.54-14.35,1.37-.11,2.73-.02,4.01.27,4.64.99,8.41,4.35,9.98,8.75.52,1.44.8,2.99.8,4.61,0,4.46-2.13,8.41-5.43,10.91-2.29,1.73-5.14,2.76-8.24,2.76-2.86,0-5.5-.87-7.7-2.37-3.43-2.33-5.73-6.18-5.96-10.58Z"/>
    <polygon class="cls-2" points="342.95 .5 342.95 97.34 329.55 97.34 329.55 57.57 303.28 57.57 303.28 97.35 289.89 110.73 289.89 13.89 303.28 13.89 303.28 44.18 329.55 44.18 329.55 13.45 342.51 .5 342.95 .5"/>
    <path class="cls-2" d="m407.43,61.42c1.99-3.81,3.11-8.17,3.11-12.79,0-15.02-11.86-27.21-26.48-27.21-11.88,0-21.93,8.05-25.28,19.13h14.01c2.43-3.73,6.57-6.19,11.27-6.19,7.5,0,13.57,6.24,13.57,13.94,0,.28-.01.56-.03.84-4.23-2.87-9.33-4.54-14.82-4.54-4.42,0-8.6,1.08-12.26,3.01-4.71,2.46-8.58,6.3-11.09,10.98-1.99,3.72-3.12,7.97-3.12,12.48,0,14.62,11.85,26.47,26.47,26.47,3.79,0,7.4-.8,10.66-2.24l6.29,6.3,9.47-9.47-5.21-5.22c3.31-4.42,5.26-9.9,5.26-15.84,0-3.41-.64-6.66-1.82-9.65Zm-24.65,22.89c-.11,0-.23,0-.34,0-7.19-.17-12.99-5.94-13.21-13.12-.01-.14-.01-.29-.01-.43,0-4.87,2.56-9.14,6.42-11.53,2.07-1.29,4.51-2.03,7.14-2.03,3.19,0,6.13,1.1,8.44,2.95,3.13,2.48,5.13,6.31,5.13,10.61,0,.7-.05,1.39-.16,2.07-.25,1.67-.82,3.25-1.64,4.66-2.33,4.08-6.73,6.83-11.77,6.83Z"/>
    <text class="cls-1" transform="translate(98.46 120.18)"><tspan x="0" y="0">SOFT</tspan><tspan class="cls-3" x="51.54" y="0">W</tspan><tspan x="69.73" y="0">ARE </tspan></text>
    <text class="cls-1" transform="translate(299.02 120.18)"><tspan x="0" y="0">SO</tspan><tspan class="cls-4" x="26.79" y="0">L</tspan><tspan x="38.33" y="0">UTION </tspan></text>
    <text/>
  </g>
</svg>